<svg xmlns="http://www.w3.org/2000/svg" viewBox="0 0 512 512" role="img" aria-label="Trip Split">
  <defs>
    <linearGradient id="bg" x1="80" y1="48" x2="448" y2="464" gradientUnits="userSpaceOnUse">
      <stop stop-color="#171225"/>
      <stop offset="1" stop-color="#081421"/>
    </linearGradient>
    <linearGradient id="accent" x1="132" y1="96" x2="396" y2="420" gradientUnits="userSpaceOnUse">
      <stop stop-color="#8138f4"/>
      <stop offset="1" stop-color="#2fd0e9"/>
    </linearGradient>
  </defs>
  <rect width="512" height="512" rx="112" fill="url(#bg)"/>
  <path d="M140 88h232c22 0 40 18 40 40v280l-38-22-38 22-38-22-38 22-38-22-38 22-38-22-38 22V128c0-22 18-40 40-40Z" fill="#f7f5ff"/>
  <path d="M164 120h184c18 0 32 14 32 32v190l-22-13-31 18-31-18-31 18-31-18-31 18-31-18-22 13V152c0-18 14-32 32-32Z" fill="#121827"/>
  <path d="M188 166h136v24H188zm0 54h96v24h-96zm0 54h130v24H188z" fill="#9ca8bb"/>
  <circle cx="354" cy="334" r="70" fill="url(#accent)"/>
  <path d="M326 318h56m0 0-20-20m20 20-20 20M382 352h-56m0 0 20-20m-20 20 20 20" fill="none" stroke="#fff" stroke-width="18" stroke-linecap="round" stroke-linejoin="round"/>
</svg>
