<svg xmlns="http://www.w3.org/2000/svg" viewBox="0 0 512 512">
  <rect width="512" height="512" rx="96" fill="#126e5a"/>
  <path fill="#fff" d="M148 104h216c18 0 32 14 32 32v256c0 18-14 32-32 32H148c-18 0-32-14-32-32V136c0-18 14-32 32-32Z"/>
  <path fill="#e7f2ec" d="M154 142h204v224H154z"/>
  <path fill="#126e5a" d="M184 184h144v24H184zm0 58h108v24H184zm0 58h144v24H184z"/>
  <circle cx="350" cy="342" r="66" fill="#2459a6"/>
  <path fill="#fff" d="M342 306h18v16c13 3 22 11 27 23l-22 9c-4-8-10-12-20-12-9 0-14 3-14 9 0 7 8 9 24 13 22 6 36 15 36 36 0 17-12 30-31 34v18h-18v-18c-18-4-31-15-36-33l24-7c3 12 11 18 25 18 10 0 16-4 16-11 0-8-8-11-25-15-21-5-35-14-35-34 0-16 11-28 31-31v-15Z"/>
</svg>
